# xmcd CD database file
#
# Track frame offsets:
#	183
#	42855
#	64780
#	80730
#	88468
#	106833
#	124320
#	138033
#	161878
#	176818
#	196583
#	216375
#
# Disc length: 3112 seconds
#
# Revision: 30
# Processed by: cddbd v1.5.2PL0 Copyright (c) Steve Scherf et al.
# Submitted via: CDex 1.78
#
DISCID=ae0c260c
DTITLE=Monteverdi Choir - English Baroque Soloists, John Eliot Gardiner, Conductor - Mass in B Minor, BWV 232 - Disc 1
DYEAR=1985
DGENRE=Baroque
TTITLE0=Kyrie - Chorus
TTITLE1=Kyrie - Duet
TTITLE2=Kyrie - Chorus
TTITLE3=Gloria - Chorus
TTITLE4=Gloria - Chorus
TTITLE5=Gloria - Aria (Soprano)
TTITLE6=Gloria - Chorus
TTITLE7=Gloria - Duet
TTITLE8=Gloria - Chorus
TTITLE9=Gloria - Aria (Alto)
TTITLE10=Gloria - Aria (Bass)
TTITLE11=Gloria - Chorus
EXTD=Publisher: Archiv Produktion - Polydor\n\n1st of 2 CDs YEAR: 1985
EXTT0=
EXTT1=
EXTT2=
EXTT3=attacca
EXTT4=
EXTT5=
EXTT6=
EXTT7=attacca
EXTT8=
EXTT9=
EXTT10=
EXTT11=
PLAYORDER=
